# xmcd
#
# Track frame offsets:
#	150
#	58350
#	109698
#	138708
#	180748
#	208412
#	249741
#	274437
#	276338
#	304960
#
# Disc length: 4643 seconds
#
# Revision: 1
# Processed by: cddbd v1.5.2PL0 Copyright (c) Steve Scherf et al.
# Submitted via: audiograbber 1.83.01
#
DISCID=af12210a
DTITLE=Grateful Dead - 92-05-21 Cal Expo Amphitheatre, Sacrimento CA
DYEAR=1900
DGENRE=
TTITLE0=Estimated Prophet
TTITLE1=He's Gone
TTITLE2=Drums
TTITLE3=Space
TTITLE4=All Along The Watchtower
TTITLE5=Standing On The Moon
TTITLE6=Turn On Your Lovelight
TTITLE7=Tuning
TTITLE8=Gloria
TTITLE9=Commentary and Commercials
EXTD=
EXTT0=
EXTT1=
EXTT2=
EXTT3=
EXTT4=
EXTT5=
EXTT6=
EXTT7=
EXTT8=
EXTT9=
PLAYORDER=
